<?xml version="1.0" encoding="utf-8"?>
<!-- Generator: Adobe Illustrator 24.2.0, SVG Export Plug-In . SVG Version: 6.00 Build 0)  -->
<svg version="1.0" id="Ebene_1" xmlns="http://www.w3.org/2000/svg" xmlns:xlink="http://www.w3.org/1999/xlink" x="0px" y="0px"
	 viewBox="0 0 510.2 198.4" style="enable-background:new 0 0 510.2 198.4;" xml:space="preserve">
<style type="text/css">
	.st0{fill:#95C11F;}
	.st1{fill:#023B7E;}
</style>
<g>
	<path class="st0" d="M34.3,84.6H47c-1.2,4.7-1.9,9.6-1.9,14.7c0,32.3,26.2,58.5,58.5,58.5c11,0,21.3-3,30-8.3l-38.2-46.7l39.1-43
		l9.2,8.3l-31.9,35.1l39.6,48.4c-12.6,11.5-29.4,18.6-47.8,18.6c-39.1,0-70.9-31.7-70.9-70.9C32.8,94.2,33.3,89.3,34.3,84.6
		L34.3,84.6z"/>
	<path class="st1" d="M174.5,99.2c0,16.2-5.4,31.1-14.6,43.1l-8.1-9.9c6.5-9.4,10.3-20.8,10.3-33.1c0-32.3-26.2-58.5-58.5-58.5
		c-17.1,0-32.4,7.3-43.1,19h50.2v12.4H86.8l0,58.5H74.4V72.2H38.1c10.6-25.7,36-43.8,65.5-43.8C142.8,28.4,174.5,60.1,174.5,99.2
		L174.5,99.2z"/>
	<path class="st1" d="M129.4,90.6v2.5h7.6l-7.6,12.8v1.9H141v-2.5h-7.9l7.6-12.8v-1.9H129.4L129.4,90.6z M143,90.6v2.5h5v14.7h2.9
		V93.1h5v-2.5H143L143,90.6z"/>
	<path class="st1" d="M195.1,147.5c0.1,0,0.2,0,0.3-0.1c0.1-0.1,0.1-0.2,0.1-0.3V136c0-0.1,0-0.2-0.1-0.3c-0.1-0.1-0.2-0.1-0.3-0.1
		h-1.6c-0.1,0-0.2,0-0.3,0.1c-0.1,0.1-0.1,0.2-0.1,0.3v11.1c0,0.1,0,0.2,0.1,0.3c0.1,0.1,0.2,0.1,0.3,0.1H195.1L195.1,147.5z
		 M200.1,147.5c0.1,0,0.2,0,0.3-0.1c0.1-0.1,0.1-0.2,0.1-0.3v-4.7c0-0.7,0.2-1.2,0.5-1.5c0.4-0.4,0.8-0.6,1.4-0.6
		c0.6,0,1.1,0.2,1.4,0.6c0.3,0.4,0.5,0.9,0.5,1.5v4.7c0,0.1,0,0.2,0.1,0.3c0.1,0.1,0.2,0.1,0.3,0.1h1.5c0.1,0,0.2,0,0.3-0.1
		c0.1-0.1,0.1-0.2,0.1-0.3v-4.8c0-0.8-0.1-1.5-0.4-2c-0.3-0.6-0.7-1-1.2-1.3c-0.5-0.3-1.1-0.5-1.8-0.5c-0.6,0-1.2,0.1-1.6,0.3
		c-0.4,0.2-0.8,0.5-1.1,0.9v-3.9c0-0.1,0-0.2-0.1-0.3c-0.1-0.1-0.2-0.1-0.3-0.1h-1.5c-0.1,0-0.2,0-0.3,0.1c-0.1,0.1-0.1,0.2-0.1,0.3
		v11.3c0,0.1,0,0.2,0.1,0.3c0.1,0.1,0.2,0.1,0.3,0.1H200.1L200.1,147.5z M210.9,147.5c0.1,0,0.2,0,0.3-0.1c0.1-0.1,0.1-0.2,0.1-0.3
		v-4.7c0-0.5,0.1-1,0.5-1.3c0.3-0.3,0.7-0.5,1.3-0.5h1.3c0.1,0,0.2,0,0.3-0.1c0.1-0.1,0.1-0.2,0.1-0.3V139c0-0.1,0-0.2-0.1-0.3
		c-0.1-0.1-0.2-0.1-0.3-0.1h-0.7c-0.5,0-1,0.1-1.4,0.3c-0.4,0.2-0.8,0.5-1,0.8v-0.7c0-0.1,0-0.2-0.1-0.3c-0.1-0.1-0.2-0.1-0.3-0.1
		h-1.4c-0.1,0-0.2,0-0.3,0.1c-0.1,0.1-0.1,0.2-0.1,0.3v8c0,0.1,0,0.2,0.1,0.3c0.1,0.1,0.2,0.1,0.3,0.1H210.9L210.9,147.5z
		 M222.2,147.5c0.1,0,0.2,0,0.3-0.1c0.1-0.1,0.1-0.2,0.1-0.3v-4h2.5c0.9,0,1.7-0.1,2.3-0.4c0.7-0.3,1.2-0.7,1.5-1.2
		c0.4-0.5,0.5-1.2,0.5-2.1c0-0.8-0.2-1.5-0.5-2.1c-0.4-0.6-0.9-1-1.5-1.3c-0.7-0.3-1.4-0.4-2.3-0.4h-4.6c-0.1,0-0.2,0-0.3,0.1
		c-0.1,0.1-0.1,0.2-0.1,0.3v11.1c0,0.1,0,0.2,0.1,0.3c0.1,0.1,0.2,0.1,0.3,0.1H222.2L222.2,147.5z M222.6,137.5h2.5
		c0.7,0,1.2,0.2,1.5,0.5c0.3,0.3,0.5,0.8,0.5,1.4c0,0.6-0.2,1.1-0.5,1.4c-0.4,0.3-0.9,0.5-1.5,0.5h-2.5V137.5L222.6,137.5z
		 M235,147.5c0.4-0.1,0.7-0.3,0.9-0.5c0.2-0.2,0.4-0.4,0.6-0.6v0.7c0,0.1,0,0.2,0.1,0.3c0.1,0.1,0.2,0.1,0.3,0.1h1.4
		c0.1,0,0.2,0,0.3-0.1c0.1-0.1,0.1-0.2,0.1-0.3v-5.3c0-0.4-0.1-0.9-0.2-1.3c-0.1-0.4-0.4-0.7-0.6-1c-0.3-0.3-0.7-0.5-1.2-0.7
		c-0.5-0.2-1.1-0.3-1.8-0.3c-0.7,0-1.2,0.1-1.7,0.3c-0.5,0.2-0.8,0.4-1.1,0.6c-0.3,0.2-0.5,0.5-0.6,0.8c-0.1,0.3-0.2,0.5-0.2,0.7
		c0,0.1,0,0.2,0.1,0.3c0.1,0.1,0.2,0.1,0.3,0.1h1.3c0.2,0,0.3-0.1,0.4-0.2c0.1-0.3,0.3-0.5,0.6-0.7c0.3-0.2,0.6-0.2,1-0.2
		c0.6,0,1,0.1,1.2,0.4c0.2,0.3,0.4,0.6,0.4,1.1v0.4l-2.3,0.3c-1,0.2-1.9,0.5-2.5,0.9c-0.6,0.5-1,1.1-1,1.9c0,0.5,0.1,0.9,0.4,1.3
		c0.3,0.4,0.7,0.7,1.1,0.9c0.5,0.2,1,0.3,1.6,0.3C234.2,147.6,234.6,147.6,235,147.5L235,147.5z M233.5,145.9
		c-0.2-0.1-0.4-0.2-0.6-0.4c-0.2-0.2-0.2-0.4-0.2-0.6c0-0.3,0.2-0.6,0.5-0.8c0.3-0.2,0.8-0.4,1.5-0.5l1.7-0.3v0.4
		c0,0.5-0.1,1-0.3,1.4s-0.4,0.6-0.8,0.8c-0.3,0.2-0.7,0.3-1.1,0.3C234,146,233.8,146,233.5,145.9L233.5,145.9z M242.9,147.5
		c0.1,0,0.2,0,0.3-0.1c0.1-0.1,0.1-0.2,0.1-0.3v-4.7c0-0.5,0.2-1,0.5-1.3c0.3-0.3,0.7-0.5,1.3-0.5h1.3c0.1,0,0.2,0,0.3-0.1
		c0.1-0.1,0.1-0.2,0.1-0.3V139c0-0.1,0-0.2-0.1-0.3c-0.1-0.1-0.2-0.1-0.3-0.1h-0.7c-0.5,0-1,0.1-1.4,0.3c-0.4,0.2-0.8,0.5-1,0.8
		v-0.7c0-0.1,0-0.2-0.1-0.3c-0.1-0.1-0.2-0.1-0.3-0.1h-1.4c-0.1,0-0.2,0-0.3,0.1c-0.1,0.1-0.1,0.2-0.1,0.3v8c0,0.1,0,0.2,0.1,0.3
		c0.1,0.1,0.2,0.1,0.3,0.1H242.9L242.9,147.5z M253.6,147.5c0.1,0,0.2,0,0.3-0.1c0.1-0.1,0.1-0.2,0.1-0.3V146c0-0.1,0-0.2-0.1-0.3
		c-0.1-0.1-0.2-0.1-0.3-0.1h-1.2c-0.4,0-0.7-0.1-0.9-0.4c-0.2-0.3-0.2-0.6-0.2-1.1v-3.7h2.1c0.1,0,0.2,0,0.3-0.1
		c0.1-0.1,0.1-0.2,0.1-0.3v-1c0-0.1,0-0.2-0.1-0.3c-0.1-0.1-0.2-0.1-0.3-0.1h-2.1v-2.8c0-0.1,0-0.2-0.1-0.3
		c-0.1-0.1-0.2-0.1-0.3-0.1h-1.4c-0.1,0-0.2,0-0.3,0.1c-0.1,0.1-0.1,0.2-0.1,0.3v2.8h-1.3c-0.1,0-0.2,0-0.3,0.1
		c-0.1,0.1-0.1,0.2-0.1,0.3v1c0,0.1,0,0.2,0.1,0.3c0.1,0.1,0.2,0.1,0.3,0.1h1.3v3.9c0,0.7,0.1,1.3,0.3,1.8c0.2,0.5,0.6,0.8,1,1.1
		c0.5,0.2,1,0.4,1.7,0.4H253.6L253.6,147.5z M257.6,147.5c0.1,0,0.2,0,0.3-0.1c0.1-0.1,0.1-0.2,0.1-0.3v-4.7c0-0.7,0.2-1.2,0.5-1.5
		c0.4-0.4,0.8-0.6,1.4-0.6c0.6,0,1.1,0.2,1.4,0.6c0.3,0.4,0.5,0.9,0.5,1.5v4.7c0,0.1,0,0.2,0.1,0.3c0.1,0.1,0.2,0.1,0.3,0.1h1.5
		c0.1,0,0.2,0,0.3-0.1c0.1-0.1,0.1-0.2,0.1-0.3v-4.8c0-0.8-0.1-1.5-0.4-2c-0.3-0.6-0.7-1-1.2-1.3c-0.5-0.3-1.1-0.5-1.8-0.5
		c-0.7,0-1.3,0.1-1.7,0.4c-0.5,0.2-0.8,0.5-1.1,0.9V139c0-0.1,0-0.2-0.1-0.3c-0.1-0.1-0.2-0.1-0.3-0.1h-1.4c-0.1,0-0.2,0-0.3,0.1
		c-0.1,0.1-0.1,0.2-0.1,0.3v8c0,0.1,0,0.2,0.1,0.3c0.1,0.1,0.2,0.1,0.3,0.1H257.6L257.6,147.5z M272,147.4c0.5-0.2,0.9-0.4,1.2-0.6
		c0.3-0.2,0.6-0.5,0.8-0.8c0.2-0.3,0.3-0.5,0.3-0.7c0-0.1,0-0.2-0.1-0.3c-0.1-0.1-0.2-0.1-0.3-0.1h-1.5c-0.1,0-0.2,0-0.3,0
		c-0.1,0-0.1,0.1-0.2,0.2c-0.1,0.1-0.2,0.2-0.3,0.3c-0.1,0.1-0.3,0.2-0.5,0.3c-0.2,0.1-0.5,0.1-0.8,0.1c-0.4,0-0.7-0.1-1-0.3
		c-0.3-0.2-0.5-0.5-0.6-0.8c-0.1-0.3-0.2-0.7-0.2-1.1c0,0,0-0.1,0-0.1h5.6c0.1,0,0.2,0,0.3-0.1c0.1-0.1,0.1-0.2,0.1-0.3V143
		c0-0.9-0.2-1.7-0.5-2.3c-0.3-0.7-0.8-1.2-1.4-1.6c-0.6-0.4-1.4-0.6-2.3-0.6c-0.8,0-1.5,0.2-2.2,0.5c-0.6,0.3-1.1,0.8-1.4,1.4
		c-0.3,0.6-0.5,1.4-0.6,2.2c0,0.1,0,0.2,0,0.4c0,0.2,0,0.3,0,0.4c0.1,1.3,0.5,2.4,1.2,3.1c0.7,0.7,1.7,1.1,3,1.1
		C271,147.6,271.5,147.6,272,147.4L272,147.4z M268.5,142.2c0-0.4,0.1-0.8,0.2-1.2c0.1-0.3,0.4-0.6,0.6-0.8c0.3-0.2,0.6-0.3,1-0.3
		c0.4,0,0.7,0.1,1,0.3c0.3,0.2,0.5,0.4,0.6,0.8c0.1,0.3,0.2,0.7,0.2,1.2v0.1L268.5,142.2L268.5,142.2L268.5,142.2z M278.4,147.5
		c0.1,0,0.2,0,0.3-0.1c0.1-0.1,0.1-0.2,0.1-0.3v-4.7c0-0.5,0.1-1,0.5-1.3c0.3-0.3,0.7-0.5,1.3-0.5h1.3c0.1,0,0.2,0,0.3-0.1
		c0.1-0.1,0.1-0.2,0.1-0.3V139c0-0.1,0-0.2-0.1-0.3c-0.1-0.1-0.2-0.1-0.3-0.1h-0.7c-0.5,0-1,0.1-1.4,0.3c-0.4,0.2-0.8,0.5-1,0.8
		v-0.7c0-0.1,0-0.2-0.1-0.3c-0.1-0.1-0.2-0.1-0.3-0.1h-1.4c-0.1,0-0.2,0-0.3,0.1c-0.1,0.1-0.1,0.2-0.1,0.3v8c0,0.1,0,0.2,0.1,0.3
		c0.1,0.1,0.2,0.1,0.3,0.1H278.4L278.4,147.5z M289.9,147.5c0.1,0,0.2,0,0.3-0.1c0.1-0.1,0.1-0.2,0.1-0.3v-6.6h2.1
		c0.1,0,0.2,0,0.3-0.1c0.1-0.1,0.1-0.2,0.1-0.3v-1c0-0.1,0-0.2-0.1-0.3c-0.1-0.1-0.2-0.1-0.3-0.1h-2.1V138c0-0.4,0.1-0.8,0.3-1
		c0.2-0.2,0.5-0.3,0.9-0.3h1.1c0.1,0,0.2,0,0.3-0.1c0.1-0.1,0.1-0.2,0.1-0.3v-1c0-0.1,0-0.2-0.1-0.3c-0.1-0.1-0.2-0.1-0.3-0.1h-1.2
		c-0.7,0-1.4,0.1-1.9,0.3c-0.5,0.2-0.9,0.6-1.1,1c-0.2,0.4-0.4,1-0.4,1.7v0.7h-1.4c-0.1,0-0.2,0-0.3,0.1c-0.1,0.1-0.1,0.2-0.1,0.3v1
		c0,0.1,0,0.2,0.1,0.3c0.1,0.1,0.2,0.1,0.3,0.1h1.4v6.6c0,0.1,0,0.2,0.1,0.3c0.1,0.1,0.2,0.1,0.3,0.1H289.9L289.9,147.5z
		 M299.3,147.3c0.5-0.2,0.8-0.5,1.1-0.9v0.7c0,0.1,0,0.2,0.1,0.3c0.1,0.1,0.2,0.1,0.3,0.1h1.4c0.1,0,0.2,0,0.3-0.1
		c0.1-0.1,0.1-0.2,0.1-0.3v-8c0-0.1,0-0.2-0.1-0.3c-0.1-0.1-0.2-0.1-0.3-0.1h-1.5c-0.1,0-0.2,0-0.3,0.1c-0.1,0.1-0.1,0.2-0.1,0.3
		v4.7c0,0.7-0.2,1.2-0.5,1.5c-0.3,0.4-0.8,0.6-1.4,0.6c-1.2,0-1.9-0.7-1.9-2.1V139c0-0.1,0-0.2-0.1-0.3c-0.1-0.1-0.2-0.1-0.3-0.1
		h-1.5c-0.1,0-0.2,0-0.3,0.1c-0.1,0.1-0.1,0.2-0.1,0.3v4.8c0,0.8,0.1,1.5,0.4,2c0.3,0.6,0.7,1,1.2,1.3c0.5,0.3,1.1,0.5,1.8,0.5
		C298.3,147.6,298.9,147.5,299.3,147.3L299.3,147.3z M300.7,137c0.1,0,0.2,0,0.3-0.1c0.1-0.1,0.1-0.2,0.1-0.3v-1.2
		c0-0.1,0-0.2-0.1-0.3c-0.1-0.1-0.2-0.1-0.3-0.1h-1.2c-0.1,0-0.2,0-0.3,0.1c-0.1,0.1-0.1,0.2-0.1,0.3v1.2c0,0.1,0,0.2,0.1,0.3
		c0.1,0.1,0.2,0.1,0.3,0.1H300.7L300.7,137z M297.5,137c0.1,0,0.2,0,0.3-0.1c0.1-0.1,0.1-0.2,0.1-0.3v-1.2c0-0.1,0-0.2-0.1-0.3
		c-0.1-0.1-0.2-0.1-0.3-0.1h-1.2c-0.1,0-0.2,0-0.3,0.1c-0.1,0.1-0.1,0.2-0.1,0.3v1.2c0,0.1,0,0.2,0.1,0.3c0.1,0.1,0.2,0.1,0.3,0.1
		H297.5L297.5,137z M307,147.5c0.1,0,0.2,0,0.3-0.1c0.1-0.1,0.1-0.2,0.1-0.3v-4.7c0-0.5,0.2-1,0.5-1.3c0.3-0.3,0.7-0.5,1.3-0.5h1.3
		c0.1,0,0.2,0,0.3-0.1c0.1-0.1,0.1-0.2,0.1-0.3V139c0-0.1,0-0.2-0.1-0.3c-0.1-0.1-0.2-0.1-0.3-0.1h-0.7c-0.5,0-1,0.1-1.4,0.3
		c-0.4,0.2-0.8,0.5-1,0.8v-0.7c0-0.1,0-0.2-0.1-0.3c-0.1-0.1-0.2-0.1-0.3-0.1h-1.4c-0.1,0-0.2,0-0.3,0.1c-0.1,0.1-0.1,0.2-0.1,0.3v8
		c0,0.1,0,0.2,0.1,0.3c0.1,0.1,0.2,0.1,0.3,0.1H307L307,147.5z M319.1,147.5c0.2,0,0.3,0,0.4-0.1c0.1-0.1,0.2-0.2,0.2-0.3l1.9-5.7
		l1.9,5.7c0,0.1,0.1,0.2,0.2,0.3c0.1,0.1,0.2,0.1,0.4,0.1h1.1c0.2,0,0.3,0,0.4-0.1c0.1-0.1,0.2-0.2,0.2-0.4l2-10.9c0,0,0-0.1,0-0.1
		c0,0,0,0,0-0.1c0-0.1,0-0.2-0.1-0.3c-0.1-0.1-0.1-0.1-0.2-0.1h-1.5c-0.3,0-0.4,0.1-0.5,0.3l-1.4,7.7l-1.5-5c0-0.1-0.1-0.2-0.2-0.3
		c-0.1-0.1-0.2-0.1-0.4-0.1h-0.9c-0.2,0-0.3,0-0.4,0.1c-0.1,0.1-0.1,0.2-0.2,0.3l-1.5,5l-1.4-7.7c0-0.2-0.2-0.3-0.5-0.3h-1.5
		c-0.1,0-0.2,0-0.2,0.1c-0.1,0.1-0.1,0.2-0.1,0.3c0,0,0,0,0,0.1c0,0,0,0.1,0,0.1l2,10.9c0,0.1,0.1,0.3,0.2,0.4
		c0.1,0.1,0.2,0.1,0.4,0.1H319.1L319.1,147.5z M333.4,147.5c0.4-0.1,0.7-0.3,0.9-0.5c0.2-0.2,0.4-0.4,0.6-0.6v0.7
		c0,0.1,0,0.2,0.1,0.3c0.1,0.1,0.2,0.1,0.3,0.1h1.4c0.1,0,0.2,0,0.3-0.1c0.1-0.1,0.1-0.2,0.1-0.3v-5.3c0-0.4-0.1-0.9-0.2-1.3
		c-0.1-0.4-0.4-0.7-0.6-1c-0.3-0.3-0.7-0.5-1.2-0.7c-0.5-0.2-1.1-0.3-1.8-0.3c-0.7,0-1.2,0.1-1.7,0.3c-0.5,0.2-0.8,0.4-1.1,0.6
		c-0.3,0.2-0.5,0.5-0.6,0.8c-0.1,0.3-0.2,0.5-0.2,0.7c0,0.1,0,0.2,0.1,0.3c0.1,0.1,0.2,0.1,0.3,0.1h1.3c0.2,0,0.3-0.1,0.4-0.2
		c0.1-0.3,0.3-0.5,0.6-0.7c0.3-0.2,0.6-0.2,1-0.2c0.6,0,1,0.1,1.2,0.4c0.2,0.3,0.4,0.6,0.4,1.1v0.4l-2.3,0.3c-1,0.2-1.9,0.5-2.5,0.9
		c-0.6,0.5-1,1.1-1,1.9c0,0.5,0.1,0.9,0.4,1.3c0.3,0.4,0.7,0.7,1.1,0.9c0.5,0.2,1,0.3,1.6,0.3C332.6,147.6,333,147.6,333.4,147.5
		L333.4,147.5z M331.9,145.9c-0.2-0.1-0.4-0.2-0.6-0.4c-0.2-0.2-0.2-0.4-0.2-0.6c0-0.3,0.2-0.6,0.5-0.8c0.3-0.2,0.8-0.4,1.5-0.5
		l1.7-0.3v0.4c0,0.5-0.1,1-0.3,1.4c-0.2,0.4-0.4,0.6-0.8,0.8c-0.3,0.2-0.7,0.3-1.1,0.3C332.4,146,332.2,146,331.9,145.9L331.9,145.9
		z M344.9,147.3c0.6-0.2,1-0.6,1.3-1c0.3-0.4,0.5-0.9,0.5-1.4c0-0.4-0.1-0.8-0.3-1.1c-0.2-0.3-0.5-0.7-1-0.9
		c-0.4-0.3-1.1-0.5-1.8-0.6c-0.7-0.1-1.2-0.3-1.5-0.4c-0.3-0.1-0.5-0.3-0.7-0.4c-0.1-0.1-0.2-0.3-0.2-0.5c0-0.3,0.1-0.5,0.3-0.7
		c0.2-0.2,0.6-0.3,1-0.3c0.3,0,0.6,0,0.8,0.1c0.2,0.1,0.4,0.2,0.5,0.3c0.1,0.1,0.3,0.3,0.4,0.4c0,0,0.1,0.1,0.1,0.1c0,0,0.1,0,0.2,0
		h1.3c0.1,0,0.2,0,0.3-0.1c0.1-0.1,0.1-0.2,0.1-0.3c0-0.2-0.1-0.4-0.3-0.6c-0.2-0.2-0.4-0.5-0.7-0.7c-0.3-0.2-0.7-0.4-1.1-0.6
		c-0.5-0.2-1-0.2-1.6-0.2c-0.8,0-1.4,0.1-2,0.4c-0.5,0.3-0.9,0.6-1.2,1c-0.3,0.4-0.4,0.8-0.4,1.3c0,0.5,0.1,0.9,0.3,1.2
		c0.2,0.3,0.5,0.6,0.9,0.9c0.4,0.2,0.9,0.4,1.6,0.6c0.6,0.1,1.1,0.3,1.5,0.4c0.4,0.1,0.6,0.3,0.7,0.4c0.1,0.1,0.2,0.3,0.2,0.6
		c0,0.3-0.2,0.6-0.5,0.8c-0.3,0.2-0.7,0.3-1.1,0.3c-0.3,0-0.6,0-0.8-0.1c-0.2-0.1-0.4-0.2-0.6-0.3c-0.2-0.1-0.3-0.3-0.5-0.4
		c-0.1-0.1-0.1-0.1-0.1-0.1c0,0-0.1,0-0.1,0h-1.3c-0.1,0-0.2,0-0.3,0.1c-0.1,0.1-0.1,0.2-0.1,0.3c0,0.2,0.1,0.4,0.2,0.6
		c0.1,0.2,0.4,0.5,0.7,0.7c0.3,0.2,0.7,0.4,1.2,0.6c0.5,0.2,1.1,0.2,1.7,0.2C343.6,147.6,344.3,147.5,344.9,147.3L344.9,147.3z
		 M354.1,147.3c0.6-0.2,1-0.6,1.3-1c0.3-0.4,0.5-0.9,0.5-1.4c0-0.4-0.1-0.8-0.3-1.1c-0.2-0.3-0.5-0.7-1-0.9
		c-0.4-0.3-1.1-0.5-1.8-0.6c-0.7-0.1-1.2-0.3-1.5-0.4c-0.3-0.1-0.5-0.3-0.7-0.4c-0.1-0.1-0.2-0.3-0.2-0.5c0-0.3,0.1-0.5,0.3-0.7
		c0.2-0.2,0.6-0.3,1-0.3c0.3,0,0.6,0,0.8,0.1c0.2,0.1,0.4,0.2,0.5,0.3c0.1,0.1,0.3,0.3,0.4,0.4c0,0,0.1,0.1,0.1,0.1c0,0,0.1,0,0.2,0
		h1.3c0.1,0,0.2,0,0.3-0.1c0.1-0.1,0.1-0.2,0.1-0.3c0-0.2-0.1-0.4-0.3-0.6c-0.2-0.2-0.4-0.5-0.7-0.7c-0.3-0.2-0.7-0.4-1.1-0.6
		c-0.5-0.2-1-0.2-1.6-0.2c-0.8,0-1.4,0.1-2,0.4c-0.5,0.3-0.9,0.6-1.2,1c-0.3,0.4-0.4,0.8-0.4,1.3c0,0.5,0.1,0.9,0.3,1.2
		c0.2,0.3,0.5,0.6,0.9,0.9c0.4,0.2,0.9,0.4,1.6,0.6c0.6,0.1,1.1,0.3,1.5,0.4c0.4,0.1,0.6,0.3,0.7,0.4c0.1,0.1,0.2,0.3,0.2,0.6
		c0,0.3-0.2,0.6-0.5,0.8c-0.3,0.2-0.7,0.3-1.1,0.3c-0.3,0-0.6,0-0.8-0.1c-0.2-0.1-0.4-0.2-0.6-0.3c-0.2-0.1-0.3-0.3-0.5-0.4
		c-0.1-0.1-0.1-0.1-0.1-0.1c0,0-0.1,0-0.1,0h-1.3c-0.1,0-0.2,0-0.3,0.1c-0.1,0.1-0.1,0.2-0.1,0.3c0,0.2,0.1,0.4,0.2,0.6
		c0.1,0.2,0.4,0.5,0.7,0.7c0.3,0.2,0.7,0.4,1.2,0.6c0.5,0.2,1.1,0.2,1.7,0.2C352.8,147.6,353.6,147.5,354.1,147.3L354.1,147.3z
		 M363.3,147.4c0.5-0.2,0.9-0.4,1.2-0.6c0.3-0.2,0.6-0.5,0.8-0.8c0.2-0.3,0.3-0.5,0.3-0.7c0-0.1,0-0.2-0.1-0.3
		c-0.1-0.1-0.2-0.1-0.3-0.1h-1.5c-0.1,0-0.2,0-0.3,0c-0.1,0-0.1,0.1-0.2,0.2c-0.1,0.1-0.2,0.2-0.3,0.3c-0.1,0.1-0.3,0.2-0.5,0.3
		c-0.2,0.1-0.5,0.1-0.8,0.1c-0.4,0-0.7-0.1-1-0.3c-0.3-0.2-0.5-0.5-0.6-0.8c-0.1-0.3-0.2-0.7-0.2-1.1c0,0,0-0.1,0-0.1h5.6
		c0.1,0,0.2,0,0.3-0.1c0.1-0.1,0.1-0.2,0.1-0.3V143c0-0.9-0.2-1.7-0.5-2.3c-0.3-0.7-0.8-1.2-1.4-1.6c-0.6-0.4-1.4-0.6-2.3-0.6
		c-0.8,0-1.5,0.2-2.2,0.5c-0.6,0.3-1.1,0.8-1.4,1.4c-0.3,0.6-0.5,1.4-0.6,2.2c0,0.1,0,0.2,0,0.4c0,0.2,0,0.3,0,0.4
		c0.1,1.3,0.5,2.4,1.2,3.1c0.7,0.7,1.7,1.1,3,1.1C362.3,147.6,362.8,147.6,363.3,147.4L363.3,147.4z M359.8,142.2
		c0-0.4,0.1-0.8,0.2-1.2c0.1-0.3,0.4-0.6,0.6-0.8c0.3-0.2,0.6-0.3,1-0.3c0.4,0,0.7,0.1,1,0.3c0.3,0.2,0.5,0.4,0.6,0.8
		c0.1,0.3,0.2,0.7,0.2,1.2v0.1L359.8,142.2L359.8,142.2L359.8,142.2z M369.7,147.5c0.1,0,0.2,0,0.3-0.1c0.1-0.1,0.1-0.2,0.1-0.3
		v-4.7c0-0.5,0.1-1,0.4-1.3c0.3-0.3,0.7-0.5,1.3-0.5h1.3c0.1,0,0.2,0,0.3-0.1c0.1-0.1,0.1-0.2,0.1-0.3V139c0-0.1,0-0.2-0.1-0.3
		c-0.1-0.1-0.2-0.1-0.3-0.1h-0.7c-0.5,0-1,0.1-1.4,0.3c-0.4,0.2-0.8,0.5-1,0.8v-0.7c0-0.1,0-0.2-0.1-0.3c-0.1-0.1-0.2-0.1-0.3-0.1
		h-1.4c-0.1,0-0.2,0-0.3,0.1c-0.1,0.1-0.1,0.2-0.1,0.3v8c0,0.1,0,0.2,0.1,0.3c0.1,0.1,0.2,0.1,0.3,0.1H369.7L369.7,147.5z
		 M383.8,147.3c0.5-0.2,0.8-0.5,1.1-0.9v0.7c0,0.1,0,0.2,0.1,0.3c0.1,0.1,0.2,0.1,0.3,0.1h1.4c0.1,0,0.2,0,0.3-0.1
		c0.1-0.1,0.1-0.2,0.1-0.3v-8c0-0.1,0-0.2-0.1-0.3c-0.1-0.1-0.2-0.1-0.3-0.1h-1.5c-0.1,0-0.2,0-0.3,0.1c-0.1,0.1-0.1,0.2-0.1,0.3
		v4.7c0,0.7-0.2,1.2-0.5,1.5c-0.3,0.4-0.8,0.6-1.4,0.6c-1.2,0-1.9-0.7-1.9-2.1V139c0-0.1,0-0.2-0.1-0.3c-0.1-0.1-0.2-0.1-0.3-0.1
		h-1.5c-0.1,0-0.2,0-0.3,0.1c-0.1,0.1-0.1,0.2-0.1,0.3v4.8c0,0.8,0.1,1.5,0.4,2c0.3,0.6,0.7,1,1.2,1.3c0.5,0.3,1.1,0.5,1.8,0.5
		C382.7,147.6,383.3,147.5,383.8,147.3L383.8,147.3z M391.4,147.5c0.1,0,0.2,0,0.3-0.1c0.1-0.1,0.1-0.2,0.1-0.3v-4.7
		c0-0.7,0.2-1.2,0.5-1.5c0.4-0.4,0.8-0.6,1.4-0.6c0.6,0,1.1,0.2,1.4,0.6c0.3,0.4,0.5,0.9,0.5,1.5v4.7c0,0.1,0,0.2,0.1,0.3
		c0.1,0.1,0.2,0.1,0.3,0.1h1.5c0.1,0,0.2,0,0.3-0.1c0.1-0.1,0.1-0.2,0.1-0.3v-4.8c0-0.8-0.1-1.5-0.4-2c-0.3-0.6-0.7-1-1.2-1.3
		c-0.5-0.3-1.1-0.5-1.8-0.5c-0.7,0-1.2,0.1-1.7,0.4c-0.5,0.2-0.8,0.5-1.1,0.9V139c0-0.1,0-0.2-0.1-0.3c-0.1-0.1-0.2-0.1-0.3-0.1
		h-1.4c-0.1,0-0.2,0-0.3,0.1c-0.1,0.1-0.1,0.2-0.1,0.3v8c0,0.1,0,0.2,0.1,0.3c0.1,0.1,0.2,0.1,0.3,0.1H391.4L391.4,147.5z
		 M405.2,147.3c0.4-0.2,0.8-0.5,1.1-0.9v0.6c0,0.1,0,0.2,0.1,0.3c0.1,0.1,0.2,0.1,0.3,0.1h1.3c0.1,0,0.2,0,0.3-0.1
		c0.1-0.1,0.1-0.2,0.1-0.3v-11.3c0-0.1,0-0.2-0.1-0.3c-0.1-0.1-0.2-0.1-0.3-0.1h-1.4c-0.1,0-0.2,0-0.3,0.1c-0.1,0.1-0.1,0.2-0.1,0.3
		v3.8c-0.3-0.3-0.6-0.6-1.1-0.8c-0.4-0.2-0.9-0.3-1.6-0.3c-0.6,0-1.1,0.1-1.6,0.3c-0.4,0.2-0.8,0.5-1.1,0.9
		c-0.3,0.4-0.5,0.8-0.7,1.3c-0.2,0.5-0.2,1-0.3,1.6c0,0.2,0,0.4,0,0.6c0,0.2,0,0.3,0,0.6c0,0.6,0.1,1.1,0.3,1.6
		c0.2,0.5,0.4,0.9,0.7,1.3c0.3,0.4,0.7,0.6,1.1,0.8c0.4,0.2,1,0.3,1.6,0.3C404.2,147.6,404.8,147.5,405.2,147.3L405.2,147.3z
		 M403.1,145.5c-0.3-0.2-0.5-0.5-0.6-0.8c-0.1-0.3-0.2-0.7-0.2-1.1c0-0.3,0-0.7,0-1c0-0.4,0.1-0.8,0.2-1.1c0.1-0.3,0.3-0.6,0.6-0.8
		c0.3-0.2,0.7-0.3,1.1-0.3c0.5,0,0.8,0.1,1.1,0.3c0.3,0.2,0.5,0.5,0.6,0.8c0.1,0.3,0.2,0.6,0.2,1c0,0.2,0,0.4,0,0.7
		c0,0.2,0,0.4,0,0.7c0,0.4-0.1,0.7-0.2,1c-0.1,0.3-0.3,0.6-0.6,0.8c-0.3,0.2-0.7,0.3-1.1,0.3C403.7,145.8,403.3,145.7,403.1,145.5
		L403.1,145.5z M422.5,147.1c0.7-0.3,1.3-0.9,1.7-1.5c0.4-0.7,0.6-1.6,0.6-2.7V136c0-0.1,0-0.2-0.1-0.3c-0.1-0.1-0.2-0.1-0.3-0.1
		h-1.5c-0.1,0-0.2,0-0.3,0.1c-0.1,0.1-0.1,0.2-0.1,0.3v6.9c0,0.9-0.2,1.6-0.7,2.1c-0.4,0.4-1,0.7-1.8,0.7c-0.8,0-1.4-0.2-1.8-0.7
		c-0.4-0.4-0.7-1.1-0.7-2.1V136c0-0.1,0-0.2-0.1-0.3c-0.1-0.1-0.2-0.1-0.3-0.1h-1.5c-0.1,0-0.2,0-0.3,0.1c-0.1,0.1-0.1,0.2-0.1,0.3
		v6.9c0,1.1,0.2,2,0.6,2.7c0.4,0.7,1,1.2,1.7,1.5c0.7,0.3,1.6,0.5,2.6,0.5C420.9,147.6,421.7,147.5,422.5,147.1L422.5,147.1z
		 M429.1,147.5c0.1,0,0.2,0,0.3-0.1c0.1-0.1,0.1-0.2,0.1-0.3v-4.7c0-0.5,0.1-0.9,0.2-1.2c0.2-0.3,0.4-0.5,0.6-0.6
		c0.2-0.1,0.5-0.2,0.8-0.2c0.3,0,0.5,0.1,0.8,0.2c0.2,0.1,0.5,0.3,0.6,0.6c0.2,0.3,0.2,0.7,0.2,1.2v4.7c0,0.1,0,0.2,0.1,0.3
		c0.1,0.1,0.2,0.1,0.3,0.1h1.4c0.1,0,0.2,0,0.3-0.1c0.1-0.1,0.1-0.2,0.1-0.3v-4.7c0-0.5,0.1-0.9,0.2-1.2c0.2-0.3,0.4-0.5,0.6-0.6
		c0.2-0.1,0.5-0.2,0.7-0.2c0.3,0,0.6,0.1,0.8,0.2c0.2,0.1,0.4,0.3,0.6,0.6c0.1,0.3,0.2,0.7,0.2,1.2v4.7c0,0.1,0,0.2,0.1,0.3
		c0.1,0.1,0.2,0.1,0.3,0.1h1.4c0.1,0,0.2,0,0.3-0.1c0.1-0.1,0.1-0.2,0.1-0.3v-4.9c0-0.8-0.1-1.5-0.4-2.1c-0.3-0.6-0.7-1-1.1-1.2
		c-0.5-0.3-1-0.4-1.6-0.4c-0.6,0-1.1,0.1-1.6,0.4c-0.5,0.3-0.9,0.6-1.1,1.1c-0.5-1-1.4-1.5-2.7-1.5c-0.6,0-1,0.1-1.4,0.3
		c-0.4,0.2-0.7,0.5-1,0.8V139c0-0.1,0-0.2-0.1-0.3c-0.1-0.1-0.2-0.1-0.3-0.1h-1.3c-0.1,0-0.2,0-0.3,0.1c-0.1,0.1-0.1,0.2-0.1,0.3v8
		c0,0.1,0,0.2,0.1,0.3c0.1,0.1,0.2,0.1,0.3,0.1H429.1L429.1,147.5z M446.1,147.5c0.2,0,0.3,0,0.4-0.1c0.1-0.1,0.1-0.2,0.2-0.3
		l1.8-5.4l1.8,5.4c0,0.1,0.1,0.2,0.2,0.3c0.1,0.1,0.2,0.1,0.4,0.1h1.1c0.2,0,0.3,0,0.4-0.1c0.1-0.1,0.1-0.2,0.2-0.3l2.4-7.9
		c0-0.1,0-0.1,0-0.2c0-0.1,0-0.2-0.1-0.3c-0.1-0.1-0.2-0.1-0.3-0.1h-1.3c-0.1,0-0.2,0-0.3,0.1c-0.1,0.1-0.1,0.1-0.1,0.2l-1.7,5.6
		l-1.8-5.6c0-0.1-0.1-0.2-0.2-0.2c-0.1-0.1-0.2-0.1-0.4-0.1H448c-0.2,0-0.3,0-0.4,0.1c-0.1,0.1-0.1,0.2-0.2,0.2l-1.8,5.6l-1.7-5.6
		c0-0.1-0.1-0.1-0.1-0.2c-0.1-0.1-0.2-0.1-0.3-0.1h-1.3c-0.1,0-0.2,0-0.2,0.1c-0.1,0.1-0.1,0.2-0.1,0.3c0,0,0,0.1,0,0.2l2.4,7.9
		c0.1,0.1,0.1,0.2,0.2,0.3c0.1,0.1,0.2,0.1,0.4,0.1H446.1L446.1,147.5z M462,147.4c0.5-0.2,0.9-0.4,1.2-0.6c0.3-0.2,0.6-0.5,0.8-0.8
		c0.2-0.3,0.3-0.5,0.3-0.7c0-0.1,0-0.2-0.1-0.3c-0.1-0.1-0.2-0.1-0.3-0.1h-1.5c-0.1,0-0.2,0-0.3,0c-0.1,0-0.1,0.1-0.2,0.2
		c-0.1,0.1-0.2,0.2-0.3,0.3c-0.1,0.1-0.3,0.2-0.5,0.3c-0.2,0.1-0.5,0.1-0.8,0.1c-0.4,0-0.7-0.1-1-0.3c-0.3-0.2-0.5-0.5-0.6-0.8
		c-0.1-0.3-0.2-0.7-0.2-1.1c0,0,0-0.1,0-0.1h5.6c0.1,0,0.2,0,0.3-0.1c0.1-0.1,0.1-0.2,0.1-0.3V143c0-0.9-0.2-1.7-0.5-2.3
		c-0.3-0.7-0.8-1.2-1.4-1.6c-0.6-0.4-1.4-0.6-2.3-0.6c-0.8,0-1.5,0.2-2.2,0.5c-0.6,0.3-1.1,0.8-1.4,1.4c-0.3,0.6-0.5,1.4-0.6,2.2
		c0,0.1,0,0.2,0,0.4c0,0.2,0,0.3,0,0.4c0.1,1.3,0.5,2.4,1.2,3.1c0.7,0.7,1.7,1.1,3,1.1C460.9,147.6,461.5,147.6,462,147.4L462,147.4
		z M458.4,142.2c0-0.4,0.1-0.8,0.2-1.2c0.1-0.3,0.4-0.6,0.6-0.8c0.3-0.2,0.6-0.3,1-0.3c0.4,0,0.7,0.1,1,0.3c0.3,0.2,0.5,0.4,0.6,0.8
		c0.1,0.3,0.2,0.7,0.2,1.2v0.1L458.4,142.2L458.4,142.2L458.4,142.2z M468.3,147.5c0.1,0,0.2,0,0.3-0.1c0.1-0.1,0.1-0.2,0.1-0.3
		v-11.3c0-0.1,0-0.2-0.1-0.3c-0.1-0.1-0.2-0.1-0.3-0.1h-1.4c-0.1,0-0.2,0-0.3,0.1c-0.1,0.1-0.1,0.2-0.1,0.3v11.3
		c0,0.1,0,0.2,0.1,0.3c0.1,0.1,0.2,0.1,0.3,0.1H468.3L468.3,147.5z M476.5,147.5c0.1,0,0.2,0,0.3-0.1c0.1-0.1,0.1-0.2,0.1-0.3V146
		c0-0.1,0-0.2-0.1-0.3c-0.1-0.1-0.2-0.1-0.3-0.1h-1.2c-0.4,0-0.7-0.1-0.9-0.4c-0.2-0.3-0.2-0.6-0.2-1.1v-3.7h2.1
		c0.1,0,0.2,0,0.3-0.1c0.1-0.1,0.1-0.2,0.1-0.3v-1c0-0.1,0-0.2-0.1-0.3c-0.1-0.1-0.2-0.1-0.3-0.1h-2.1v-2.8c0-0.1,0-0.2-0.1-0.3
		c-0.1-0.1-0.2-0.1-0.3-0.1h-1.4c-0.1,0-0.2,0-0.3,0.1c-0.1,0.1-0.1,0.2-0.1,0.3v2.8h-1.3c-0.1,0-0.2,0-0.3,0.1
		c-0.1,0.1-0.1,0.2-0.1,0.3v1c0,0.1,0,0.2,0.1,0.3c0.1,0.1,0.2,0.1,0.3,0.1h1.3v3.9c0,0.7,0.1,1.3,0.3,1.8c0.2,0.5,0.6,0.8,1,1.1
		c0.5,0.2,1,0.4,1.7,0.4H476.5L476.5,147.5z"/>
	<path class="st0" d="M200.4,126.5c0.3,0,0.6-0.1,0.8-0.4c0.2-0.2,0.3-0.5,0.3-0.8V114l9.3,11.5c0.1,0.1,0.3,0.3,0.6,0.6
		c0.3,0.2,0.7,0.4,1.3,0.4h7c0.3,0,0.5-0.1,0.7-0.3c0.2-0.2,0.3-0.4,0.3-0.7c0-0.2-0.1-0.4-0.2-0.6l-12.1-15.5l11.2-14.1
		c0.1-0.2,0.1-0.3,0.1-0.6c0-0.2-0.1-0.5-0.3-0.7c-0.2-0.2-0.4-0.3-0.7-0.3H212c-0.5,0-0.9,0.1-1.2,0.3c-0.3,0.2-0.5,0.4-0.6,0.6
		l-8.6,10.7V94.9c0-0.3-0.1-0.6-0.3-0.8c-0.2-0.2-0.5-0.3-0.8-0.3h-5.9c-0.3,0-0.6,0.1-0.8,0.3c-0.2,0.2-0.3,0.5-0.3,0.8v30.4
		c0,0.3,0.1,0.6,0.3,0.8c0.2,0.2,0.5,0.4,0.8,0.4H200.4L200.4,126.5z M248.2,126.5c0.3,0,0.6-0.1,0.8-0.4c0.2-0.2,0.3-0.5,0.3-0.8
		v-4.4c0-0.3-0.1-0.6-0.3-0.8c-0.2-0.2-0.5-0.3-0.8-0.3h-15.3v-6.5h13.9c0.3,0,0.6-0.1,0.8-0.4c0.2-0.2,0.3-0.5,0.3-0.8V108
		c0-0.3-0.1-0.6-0.3-0.9c-0.2-0.2-0.5-0.4-0.8-0.4h-13.9v-6.3h14.9c0.3,0,0.6-0.1,0.8-0.3c0.2-0.2,0.3-0.5,0.3-0.8v-4.4
		c0-0.3-0.1-0.6-0.3-0.8c-0.2-0.2-0.5-0.3-0.8-0.3H226c-0.3,0-0.6,0.1-0.8,0.3c-0.2,0.2-0.3,0.5-0.3,0.8v30.4c0,0.3,0.1,0.6,0.3,0.8
		c0.2,0.2,0.5,0.4,0.8,0.4H248.2L248.2,126.5z M262.3,126.5c0.3,0,0.6-0.1,0.9-0.4c0.2-0.2,0.4-0.5,0.4-0.8v-10.4h4.8l5.3,10.3
		c0.1,0.2,0.3,0.5,0.6,0.8c0.3,0.3,0.7,0.4,1.3,0.4h6.2c0.2,0,0.5-0.1,0.7-0.3c0.2-0.2,0.3-0.4,0.3-0.7c0-0.2,0-0.3-0.1-0.5
		l-6.4-11.5c1.7-0.8,3.1-1.9,4.2-3.5c1.1-1.5,1.6-3.4,1.6-5.6c0-3.4-1.2-6-3.5-7.9c-2.3-1.9-5.5-2.8-9.5-2.8h-12.7
		c-0.3,0-0.6,0.1-0.8,0.3c-0.2,0.2-0.3,0.5-0.3,0.8v30.4c0,0.3,0.1,0.6,0.3,0.8c0.2,0.2,0.5,0.4,0.8,0.4H262.3L262.3,126.5z
		 M263.5,100.2h5.4c1.5,0,2.6,0.4,3.3,1.1c0.7,0.7,1.1,1.7,1.1,2.9s-0.4,2.2-1.1,2.9c-0.7,0.7-1.8,1.1-3.3,1.1h-5.4V100.2
		L263.5,100.2z M294.7,126.5c0.3,0,0.6-0.1,0.8-0.4c0.2-0.2,0.3-0.5,0.3-0.8v-17l11.4,17.3c0.1,0.1,0.2,0.3,0.4,0.5
		c0.2,0.2,0.6,0.4,1.1,0.4h5c0.3,0,0.6-0.1,0.8-0.4c0.2-0.2,0.3-0.5,0.3-0.9V94.9c0-0.3-0.1-0.6-0.3-0.8c-0.2-0.2-0.5-0.3-0.8-0.3
		h-5.6c-0.3,0-0.6,0.1-0.8,0.3c-0.2,0.2-0.3,0.5-0.3,0.8v17.7l-11.4-18c-0.1-0.1-0.2-0.3-0.4-0.5c-0.2-0.2-0.6-0.4-1.1-0.4h-5
		c-0.3,0-0.6,0.1-0.8,0.3c-0.2,0.2-0.3,0.5-0.3,0.8v30.4c0,0.3,0.1,0.6,0.3,0.8c0.2,0.2,0.5,0.4,0.8,0.4H294.7L294.7,126.5z
		 M341.5,125.7c2.1-0.8,3.8-2,5-3.5c1.2-1.5,1.8-3.3,1.8-5.5c0-1.9-0.4-3.5-1.2-4.7c-0.8-1.3-2.1-2.3-3.9-3.1c-1.7-0.8-4-1.5-6.9-2
		c-1.7-0.4-3.1-0.7-4-1.1c-1-0.3-1.7-0.7-2.1-1.2c-0.4-0.5-0.6-1-0.6-1.6c0-1,0.4-1.7,1.1-2.2c0.8-0.5,1.8-0.7,3.2-0.7
		c1.3,0,2.3,0.3,3.1,0.8c0.8,0.5,1.3,1.1,1.5,1.8c0.2,0.3,0.4,0.5,0.7,0.6c0.2,0.1,0.5,0.2,0.9,0.2h6.2c0.3,0,0.6-0.1,0.7-0.3
		c0.2-0.2,0.3-0.4,0.3-0.7c0-1-0.3-2-0.9-3.1c-0.6-1-1.4-2-2.5-3c-1.1-0.9-2.5-1.7-4.1-2.2c-1.6-0.6-3.5-0.8-5.7-0.8
		c-2.6,0-4.9,0.4-6.9,1.3c-1.9,0.8-3.4,2-4.5,3.5c-1.1,1.5-1.6,3.2-1.6,5.1c0,1.9,0.4,3.5,1.3,4.8c0.9,1.3,2.1,2.3,3.8,3.1
		c1.7,0.8,3.7,1.4,6.1,1.9c1.8,0.4,3.3,0.7,4.4,1.1c1.1,0.4,1.9,0.8,2.4,1.2c0.5,0.4,0.7,1,0.7,1.7c0,1-0.5,1.7-1.4,2.3
		c-0.9,0.6-2.3,0.8-4.1,0.8c-1.1,0-2-0.1-2.7-0.4c-0.7-0.3-1.3-0.6-1.8-1.1c-0.5-0.4-0.8-0.9-1.1-1.4c-0.2-0.2-0.4-0.5-0.6-0.6
		c-0.2-0.2-0.6-0.2-1-0.2h-5.9c-0.3,0-0.5,0.1-0.7,0.3c-0.2,0.2-0.3,0.4-0.3,0.7c0.1,1.6,0.6,3.1,1.7,4.6c1.1,1.4,2.6,2.6,4.7,3.5
		c2.1,0.9,4.6,1.3,7.8,1.3C337,126.9,339.4,126.5,341.5,125.7L341.5,125.7z M367.7,126.5c0.3,0,0.6-0.1,0.8-0.4
		c0.2-0.2,0.3-0.5,0.3-0.8v-24.2h8.3c0.3,0,0.6-0.1,0.8-0.4c0.2-0.2,0.3-0.5,0.3-0.8v-5c0-0.3-0.1-0.6-0.3-0.8
		c-0.2-0.2-0.5-0.3-0.8-0.3H352c-0.3,0-0.6,0.1-0.8,0.3c-0.2,0.2-0.3,0.5-0.3,0.8v5c0,0.3,0.1,0.6,0.3,0.8c0.2,0.2,0.5,0.4,0.8,0.4
		h8.3v24.2c0,0.3,0.1,0.6,0.3,0.8c0.2,0.2,0.5,0.4,0.8,0.4H367.7L367.7,126.5z M403.4,125.5c2.1-0.9,3.8-2.3,5-4.2
		c1.2-1.9,1.8-4.2,1.9-7.1c0.1-1.3,0.1-2.7,0.1-4s0-2.7-0.1-4c-0.1-2.8-0.7-5.2-2-7.1c-1.2-1.9-2.9-3.4-5-4.3
		c-2.1-1-4.6-1.4-7.4-1.4c-2.8,0-5.3,0.5-7.4,1.4c-2.1,1-3.8,2.4-5,4.3c-1.2,1.9-1.9,4.3-2,7.1c0,1.3,0,2.7,0,4s0,2.7,0,4
		c0.1,2.8,0.8,5.2,2,7.1c1.2,1.9,2.8,3.3,5,4.2c2.1,0.9,4.6,1.4,7.5,1.4C398.8,126.9,401.2,126.5,403.4,125.5L403.4,125.5z
		 M391.9,118.7c-1-1-1.6-2.6-1.7-4.8c0-1.4,0-2.7,0-3.9c0-1.2,0-2.5,0-3.8c0.1-1.5,0.3-2.7,0.8-3.6c0.5-0.9,1.2-1.6,2-2
		c0.8-0.4,1.8-0.7,2.9-0.7c1.1,0,2.1,0.2,2.9,0.7c0.8,0.4,1.5,1.1,2,2c0.5,0.9,0.8,2.1,0.8,3.6c0.1,1.3,0.1,2.6,0.1,3.8
		c0,1.2,0,2.5-0.1,3.9c-0.1,2.2-0.6,3.8-1.7,4.8c-1,1-2.4,1.5-4,1.5C394.3,120.2,392.9,119.7,391.9,118.7L391.9,118.7z M435.4,126.2
		c1.7-0.5,3.3-1.3,4.6-2.2c1.3-1,2.3-2.2,3.1-3.6c0.7-1.4,1.1-3,1.1-4.7c0-0.3-0.1-0.5-0.3-0.7c-0.2-0.2-0.4-0.3-0.7-0.3h-6.3
		c-0.4,0-0.7,0.1-1,0.3c-0.2,0.2-0.4,0.5-0.5,1c-0.4,1.6-1.1,2.7-2.1,3.4c-1,0.6-2.2,0.9-3.6,0.9c-1.7,0-3.1-0.5-4.1-1.4
		c-1-1-1.5-2.5-1.6-4.7c-0.1-2.7-0.1-5.3,0-7.9c0.1-2.2,0.6-3.8,1.6-4.7c1-1,2.4-1.4,4.1-1.4c1.4,0,2.6,0.3,3.6,0.9
		c1,0.6,1.7,1.7,2.1,3.4c0.2,0.5,0.3,0.8,0.6,1c0.2,0.2,0.5,0.3,0.9,0.3h6.3c0.3,0,0.5-0.1,0.7-0.3c0.2-0.2,0.3-0.4,0.3-0.7
		c0-1.7-0.4-3.3-1.1-4.7c-0.7-1.4-1.8-2.6-3.1-3.6c-1.3-1-2.8-1.7-4.6-2.2c-1.7-0.5-3.6-0.8-5.7-0.8c-2.9,0-5.4,0.5-7.5,1.4
		c-2.1,1-3.8,2.4-5,4.3c-1.2,1.9-1.8,4.2-2,6.9c0,1.3,0,2.7,0,4.2c0,1.5,0,2.8,0,4.1c0.1,2.8,0.8,5.1,1.9,7c1.2,1.9,2.8,3.3,4.9,4.3
		c2.1,1,4.6,1.4,7.6,1.4C431.7,126.9,433.6,126.7,435.4,126.2L435.4,126.2z M456.6,126.5c0.3,0,0.6-0.1,0.8-0.4
		c0.2-0.2,0.3-0.5,0.3-0.8V114l9.3,11.5c0.1,0.1,0.3,0.3,0.6,0.6c0.3,0.2,0.7,0.4,1.3,0.4h7c0.3,0,0.5-0.1,0.7-0.3
		c0.2-0.2,0.3-0.4,0.3-0.7c0-0.2-0.1-0.4-0.2-0.6l-12.1-15.5l11.2-14.1c0.1-0.2,0.1-0.3,0.1-0.6c0-0.2-0.1-0.5-0.3-0.7
		c-0.2-0.2-0.4-0.3-0.7-0.3h-6.7c-0.5,0-0.9,0.1-1.2,0.3c-0.3,0.2-0.5,0.4-0.6,0.6l-8.6,10.7V94.9c0-0.3-0.1-0.6-0.3-0.8
		c-0.2-0.2-0.5-0.3-0.8-0.3h-5.9c-0.3,0-0.6,0.1-0.8,0.3c-0.2,0.2-0.3,0.5-0.3,0.8v30.4c0,0.3,0.1,0.6,0.3,0.8
		c0.2,0.2,0.5,0.4,0.8,0.4H456.6L456.6,126.5z"/>
	<path class="st1" d="M210,84c0.3,0,0.6-0.1,0.8-0.4c0.2-0.2,0.3-0.5,0.3-0.8V58.6h8.3c0.3,0,0.6-0.1,0.8-0.4
		c0.2-0.2,0.3-0.5,0.3-0.8v-5c0-0.3-0.1-0.6-0.3-0.8c-0.2-0.2-0.5-0.3-0.8-0.3h-25.2c-0.3,0-0.6,0.1-0.8,0.3
		c-0.2,0.2-0.3,0.5-0.3,0.8v5c0,0.3,0.1,0.6,0.3,0.8c0.2,0.2,0.5,0.4,0.8,0.4h8.3v24.2c0,0.3,0.1,0.6,0.3,0.8
		c0.2,0.2,0.5,0.4,0.8,0.4H210L210,84z M248.7,84c0.3,0,0.6-0.1,0.8-0.4c0.2-0.2,0.3-0.5,0.3-0.8v-4.4c0-0.3-0.1-0.6-0.3-0.8
		c-0.2-0.2-0.5-0.3-0.8-0.3h-15.3v-6.5h13.9c0.3,0,0.6-0.1,0.8-0.4c0.2-0.2,0.3-0.5,0.3-0.8v-4.1c0-0.3-0.1-0.6-0.3-0.9
		c-0.2-0.2-0.5-0.4-0.8-0.4h-13.9V58h14.9c0.3,0,0.6-0.1,0.8-0.3c0.2-0.2,0.3-0.5,0.3-0.8v-4.4c0-0.3-0.1-0.6-0.3-0.8
		c-0.2-0.2-0.5-0.3-0.8-0.3h-21.8c-0.3,0-0.6,0.1-0.8,0.3c-0.2,0.2-0.3,0.5-0.3,0.8v30.4c0,0.3,0.1,0.6,0.3,0.8
		c0.2,0.2,0.5,0.4,0.8,0.4H248.7L248.7,84z M259.6,84c0.5,0,0.9-0.1,1.1-0.4c0.2-0.2,0.4-0.4,0.4-0.6l1.8-4.8h12.5l1.8,4.8
		c0.1,0.2,0.2,0.4,0.4,0.6c0.2,0.2,0.6,0.4,1.1,0.4h5.7c0.3,0,0.5-0.1,0.7-0.3c0.2-0.2,0.3-0.4,0.3-0.7c0-0.2,0-0.3-0.1-0.4
		l-10.9-30c-0.1-0.3-0.3-0.6-0.6-0.9c-0.3-0.3-0.7-0.4-1.2-0.4h-6.9c-0.5,0-0.9,0.1-1.2,0.4c-0.3,0.3-0.5,0.6-0.6,0.9l-11,30
		c0,0.1,0,0.3,0,0.4c0,0.2,0.1,0.5,0.3,0.7c0.2,0.2,0.4,0.3,0.7,0.3H259.6L259.6,84z M269.2,59.2l4.3,12.3h-8.7L269.2,59.2
		L269.2,59.2z M296.4,84c0.3,0,0.6-0.1,0.8-0.4c0.2-0.2,0.3-0.5,0.3-0.8V65.3l5.3,9.8c0.2,0.3,0.4,0.5,0.6,0.7
		c0.2,0.2,0.6,0.3,1,0.3h2.4c0.4,0,0.8-0.1,1-0.3c0.2-0.2,0.5-0.5,0.6-0.7l5.2-9.8v17.5c0,0.3,0.1,0.6,0.4,0.8
		c0.2,0.2,0.5,0.4,0.9,0.4h5.6c0.3,0,0.6-0.1,0.9-0.4c0.2-0.2,0.4-0.5,0.4-0.8V52.4c0-0.3-0.1-0.6-0.4-0.8c-0.2-0.2-0.5-0.3-0.9-0.3
		h-5c-0.5,0-0.9,0.1-1.1,0.4c-0.2,0.3-0.4,0.5-0.5,0.6L305.7,67l-8.2-14.7c-0.1-0.2-0.2-0.4-0.5-0.6c-0.2-0.3-0.6-0.4-1.2-0.4h-5
		c-0.3,0-0.6,0.1-0.8,0.3c-0.2,0.2-0.4,0.5-0.4,0.8v30.4c0,0.3,0.1,0.6,0.4,0.8c0.2,0.2,0.5,0.4,0.8,0.4H296.4L296.4,84z"/>
	<path class="st1" d="M372.8,63.6c-0.2-0.1-8.9-2.9-9-2.9c-0.2-0.1-0.3-0.3-0.2-0.4c0.1-0.2,0.3-0.3,0.5-0.3
		c0.2,0.1,4.3,1.3,5.2,1.5c2.5,0.7,3.2-1,3.4-1.4c0.1-0.2,0.1-0.3,0.1-0.5c0.1-0.3-0.1-0.5-0.4-0.6c-0.2,0-7.6-1.2-8.2-1.2
		c-0.3,0-0.4-0.3-0.4-0.5c0-0.1,0.1-0.2,0.2-0.3c0.1,0,0.2,0,0.3,0c0.2,0,5.4,0.7,6.2,0.5c1.6-0.3,1.8-2,1.8-2.4
		c0-0.4-0.2-0.5-0.5-0.5c-0.4,0-5.7,0-8.3,0c0,0,0,0-0.1,0c-0.3,0-0.5-0.2-0.5-0.5c0-0.1,0-0.2,0.2-0.3c0.1,0,0.2-0.1,0.2-0.1
		c0.2,0,4.1-0.1,4.8-0.4c1.6-0.6,1.5-2.3,1.4-2.7c-0.1-0.4-0.2-0.5-0.6-0.4c-0.6,0.1-7,1.4-7.4,1.5c-0.6,0.1-1.5,0.6-1.5,1.9
		c0,1,0,0,0.2,5.2c0,0.6-0.3,1-0.8,1.2c0,0-0.3,0.1-0.5,0.1c-0.7,0.1-1.9,0-1.9,0c-0.4,0-0.6-0.3-0.6-0.6c0-0.1-0.4-4.2-0.4-4.8
		c0-0.3-0.1-0.7-0.1-1c0-0.2,0-0.4,0-0.6c0-0.3,0.1-0.4,0.3-0.5c0.9-0.3,1-1,1-1.3c0-0.2-0.1-0.3-0.3-0.3c-0.1,0-0.4,0.3-1.1,0.3
		c-0.3,0-3.7,0-4.1,0c-0.5,0-1,0.2-1.2,0.8c-0.1,0.3-0.3,0.5-0.6,0.5c-0.3,0-0.6,0-0.9,0c-0.4,0-0.7,0.1-1,0.5
		c-0.2,0.2-0.3,0.5-0.4,0.8c0,0.1,0,0.3,0,0.4c0,0.2,0.1,0.3,0.3,0.2c0.2-0.1,0.3-0.1,0.5-0.3c0.2-0.2,0.4-0.2,0.6-0.2
		c0.3,0,0.4,0,0.8,0c0.5,0,0.7,0.3,0.6,0.4c0,0.1-0.1,0.2-0.2,0.3c-0.2,0-0.4,0.1-0.7,0.1c-0.5,0.1-0.5,0.6-0.5,0.7
		c0,0.1,0.1,0.3,0.2,0.3c0.1,0,0.1,0,0.2,0c0.5-0.1,0.8-0.1,1,0c0.2,0.1,0.3,0.3,0.2,0.5c-0.1,0.3-1.6,3.3-1.7,3.5
		c-0.1,0.2-0.3,0.3-0.5,0.4c-0.2,0-1.9,0-2.1,0c-0.2,0-0.4-0.1-0.6-0.2c-0.5-0.3-0.8-0.7-0.8-1.2c0.1-5.1,0.1-4.2,0.1-5.2
		c0-1.3-0.8-1.8-1.5-1.9c-0.4-0.1-6.9-1.4-7.4-1.5c-0.4-0.1-0.5,0-0.6,0.4c-0.1,0.4-0.2,2.1,1.4,2.7c0.8,0.3,4.6,0.4,4.8,0.4
		c0.1,0,0.2,0,0.2,0.1c0.1,0,0.2,0.2,0.2,0.3c0,0.3-0.2,0.5-0.5,0.5c0,0-0.1,0-0.1,0c-2.6,0-7.9,0-8.3,0c-0.4,0-0.5,0.1-0.5,0.5
		c0,0.4,0.2,2.1,1.8,2.4c0.8,0.1,5.9-0.5,6.2-0.5c0.1,0,0.2,0,0.3,0c0.1,0,0.2,0.1,0.2,0.3c0,0.3-0.1,0.5-0.4,0.5
		c-0.6,0.1-8.1,1.2-8.2,1.2c-0.3,0-0.5,0.2-0.4,0.6c0,0.2,0.1,0.3,0.1,0.5c0.1,0.4,0.8,2.1,3.4,1.4c0.9-0.2,5-1.4,5.2-1.5
		c0.2-0.1,0.4,0.1,0.5,0.3c0.1,0.2,0,0.3-0.2,0.4c-0.1,0-8.8,2.8-9,2.9c-0.2,0.1-0.3,0.3-0.2,0.6c0.2,0.5,0.6,1,1.1,1.4
		c0.3,0.2,0.6,0.3,1,0.3c0.8,0.1,1.5,0,2.2-0.4c0.4-0.2,5.3-2.6,5.6-2.7c0.3-0.1,0.5,0,0.5,0.3c0,0.1,0,0.3-0.1,0.3
		c-0.1,0.1-9.6,5-9.7,5c-0.4,0.2-0.5,0.5-0.3,0.8c0.3,0.5,2,2.4,4.2,1c0.1,0,0.3-0.2,0.7-0.5c0,0.4,0.1,0.7,0.2,1.1
		c-0.9,0.7-1.5,1.1-1.6,1.2c-0.3,0.2-0.6,0.4-0.9,0.7c-0.2,0.2-0.5,0.4-0.7,0.5c-0.3,0.2-0.3,0.4-0.1,0.7c0.2,0.3,0.5,0.6,0.9,0.8
		c0.3,0.2,2,1.3,4.1-0.8c0.1-0.1,0.2-0.2,0.4-0.5c0.3,0.2,0.6,0.3,0.9,0.4c-0.9,0.9-1.5,1.6-1.6,1.8c-0.5,0.6-1,1.1-1.6,1.7
		c-0.2,0.2-0.4,0.4-0.6,0.7c-0.2,0.3-0.2,0.4,0,0.7c0.5,0.5,2.6,1.8,4.1,0.2c0,0,0,0,0,0c0,0,0.2-0.3,0.4-0.6c0-0.1,0.1-0.2,0.2-0.3
		c0.1,0.5,0.5,0.8,1,0.8c0.6,0,1-0.5,1-1c0,0,0,0,0,0c0,0,0,0,0,0v-0.2c0,0,0-0.1,0-0.1c0.3-0.1,0.5-0.3,0.7-0.5h0.2v0.5
		c-0.4,0.2-0.6,0.5-0.6,1v0.5c0,0.4,0.3,0.8,0.6,1v0.6c-0.4,0.2-0.6,0.5-0.6,1v0.5c0,0.4,0.3,0.8,0.6,1v0.6c-0.4,0.2-0.6,0.5-0.6,1
		v0.3h0.6v-0.3c0-0.2,0.2-0.4,0.4-0.4c0.2,0,0.4,0.2,0.4,0.4v0.3h0.6v-0.3c0-0.4-0.3-0.8-0.7-1v-0.5c0.4-0.1,0.7-0.5,0.7-1v-0.5
		c0-0.4-0.3-0.8-0.7-1v-0.5c0.4-0.1,0.7-0.5,0.7-1v-0.5c0-0.4-0.3-0.8-0.7-1v-0.5h0.5c0.7,0.1,1.2,0.2,1.3,0.1
		c0.4-0.1,0.6-0.5,0.8-0.8c0.2-0.3,1.6-3.2,1.8-3.6c0.1-0.2,0.1-0.3,0.3-0.4c0.1,0,0.2-0.1,0.3,0c0.1,0.1,0.1,0.2,0.1,0.3
		c0,0,0,0.1,0,0.1c-0.2,0.5-3.3,11-3.3,11.2c-0.1,0.4,0,0.6,0.4,0.6c0.3,0,1.6,0.2,2.1-1.2c0.2-0.5,1.1-4.5,1.2-4.8
		c0-0.1,0.1-0.1,0.2-0.2c0.1-0.1,0.3,0,0.3,0.2c0,0.1,0,0.3,0,0.5c-0.2,0.5-0.9,5-0.9,5.1c-0.1,0.3,0,0.6,0.3,0.8
		c0.3,0.2,1.1,0.6,1.9,0.6c0.8,0,1.6-0.4,1.9-0.6c0.3-0.2,0.4-0.5,0.3-0.8c0-0.1-0.8-4.6-0.9-5.1c0-0.1,0-0.3,0-0.5
		c0-0.1,0.2-0.2,0.3-0.2c0.1,0,0.2,0.1,0.2,0.2c0.1,0.2,1.1,4.3,1.2,4.8c0.5,1.4,1.8,1.2,2.1,1.2c0.4,0,0.6-0.2,0.5-0.6
		c-0.1-0.2-3.1-10.6-3.3-11.2c0,0,0-0.1,0-0.1c0-0.1,0-0.2,0.1-0.3c0.1-0.1,0.2-0.1,0.3,0c0.2,0.1,0.2,0.2,0.3,0.4
		c0.2,0.4,1.6,3.4,1.8,3.6c0.2,0.3,0.4,0.7,0.8,0.8c0.1,0,0.7,0,1.3-0.1h0.4v0.5c-0.4,0.2-0.6,0.5-0.6,1v0.5c0,0.4,0.3,0.8,0.6,1
		v0.6c-0.4,0.2-0.6,0.5-0.6,1v0.5c0,0.4,0.3,0.8,0.6,1v0.6c-0.4,0.2-0.6,0.5-0.6,1v0.3h0.6v-0.3c0-0.2,0.2-0.4,0.4-0.4
		c0.2,0,0.4,0.2,0.4,0.4v0.3h0.6v-0.3c0-0.4-0.3-0.8-0.7-1v-0.5c0.4-0.1,0.7-0.5,0.7-1v-0.5c0-0.4-0.3-0.8-0.7-1v-0.5
		c0.4-0.1,0.7-0.5,0.7-1v-0.5c0-0.4-0.3-0.8-0.7-1v-0.5h0.2c0.1,0.3,0.4,0.5,0.7,0.5c0,0,0,0.1,0,0.1v0.2c0,0,0,0,0,0c0,0,0,0,0,0
		c0,0.6,0.5,1,1,1c0.5,0,0.9-0.4,1-0.8c0.1,0.1,0.1,0.2,0.2,0.3c0.2,0.3,0.4,0.6,0.4,0.6c0,0,0,0,0,0c1.5,1.6,3.6,0.3,4.1-0.2
		c0.2-0.3,0.3-0.4,0-0.7c-0.2-0.2-0.4-0.4-0.6-0.7c-0.5-0.6-1-1.1-1.6-1.7c-0.2-0.2-1.2-1.3-2.5-2.7v-1.3c1.1,1.2,2.1,2.2,2.2,2.3
		c2.1,2.1,3.8,0.9,4.1,0.8c0.3-0.2,0.6-0.5,0.9-0.8c0.2-0.3,0.2-0.5-0.1-0.7c-0.2-0.2-0.5-0.4-0.7-0.5c-0.3-0.2-0.6-0.4-0.9-0.7
		c-0.2-0.1-1.8-1.4-3.6-2.8c0.2-0.2,0.3-0.5,0.3-0.7v-0.3c1.4,1,2.6,1.9,2.8,2c2.2,1.5,3.8-0.4,4.2-1c0.2-0.3,0.1-0.6-0.3-0.8
		c-0.1-0.1-9.6-4.9-9.7-5c-0.1-0.1-0.1-0.2-0.1-0.3c0-0.2,0.3-0.4,0.5-0.3c0.4,0.2,5.2,2.5,5.6,2.7c0.7,0.4,1.5,0.5,2.2,0.4
		c0.3,0,0.7-0.1,1-0.3c0.5-0.3,0.8-0.8,1.1-1.4C373.1,63.9,373,63.7,372.8,63.6L372.8,63.6z M345.3,76.2v-1.3h0.8
		c0.4,0,0.7,0.3,0.7,0.7c0,0.4-0.3,0.7-0.7,0.7H345.3L345.3,76.2z M344.5,81.1c0-0.2,0.2-0.4,0.4-0.4c0.2,0,0.4,0.2,0.4,0.4v0.5
		c0,0.2-0.2,0.4-0.4,0.4c-0.2,0-0.4-0.2-0.4-0.4V81.1L344.5,81.1z M344.5,78.1c0-0.2,0.2-0.4,0.4-0.4c0.2,0,0.4,0.2,0.4,0.4v0.5
		c0,0.2-0.2,0.4-0.4,0.4c-0.2,0-0.4-0.2-0.4-0.4V78.1L344.5,78.1z M342,77.3L342,77.3C342.1,77.3,342.1,77.3,342,77.3l1.1,0
		c0,0,0,0,0,0h0v0.2c0,0,0,0,0,0c0,0.3-0.2,0.6-0.6,0.6c-0.3,0-0.6-0.3-0.6-0.6c0,0,0,0,0,0V77.3L342,77.3z M341.1,75
		c0-0.4,0.3-0.6,0.6-0.7c1,0,0.6,0,1.6,0c0.2,0,0.4,0.2,0.5,0.4c0,0.1,0.1,0.2,0.2,0.2h0.4v1.3h-0.4c-0.1,0-0.2,0.1-0.2,0.2
		c-0.1,0.3-0.3,0.4-0.6,0.4h-1.5c-0.4,0-0.7-0.3-0.7-0.7V75L341.1,75z M344.8,65.8c0,0,0.2,0.2,0.1,0.3c-0.1,0.1-0.2,0-0.3,0
		c-0.5-0.3-1.1-0.5-1.7-0.5c-1.9,0-3.5,1.6-3.5,3.5c0,1.9,1.6,3.5,3.5,3.5c0.3,0,0.3,0.2,0.3,0.3c0,0,0,0,0,0v0.9H342l0-0.2
		c0-0.1-0.1-0.2-0.2-0.2c0,0-0.1,0-0.1,0c-2.3-0.1-4-2-4-4.3c0-2.4,1.9-4.3,4.3-4.3C343,64.8,344,65.1,344.8,65.8L344.8,65.8z
		 M339.8,69c0.1-1.6,1.4-2.9,3-2.9c0.2,0,0.5,0,0.7,0.1C342.6,66.8,341.2,67.9,339.8,69L339.8,69z M346.8,67.1
		c-0.2,0.2-2.6,2.8-4.7,5c-0.3-0.1-0.6-0.2-0.9-0.3c2-2,4.7-4.9,4.9-5.1C346.5,66.2,347.1,66.7,346.8,67.1L346.8,67.1z M347.9,70.2
		c-0.2,0.4-1.4,2.4-2.4,4.3h-0.2v-0.3h-0.8v0.3h-0.2c0-0.1-0.1-0.2-0.2-0.3c1.6-2.2,3.4-4.6,3.4-4.7c0.1-0.1,0.2-0.1,0.3-0.1
		c0.1,0,0.2,0.1,0.2,0.2C348.1,69.8,348,70,347.9,70.2L347.9,70.2z M353.9,52.2c-0.2,0.6-1.1,1-1.6,1c-0.6,0-1.1-0.4-1.1-1
		c0,0,0-0.1,0.1-0.1l0.4,0c0,0,0,0,0,0c0,0.3,0.3,0.6,0.6,0.6c0.3,0,0.6-0.3,0.6-0.6c0,0,0-0.1,0-0.1l0.9-0.1
		C353.9,52,354,52,353.9,52.2L353.9,52.2z M356.7,67.5c0,2.3-1.9,4.2-4.2,4.2c-2.3,0-4.2-1.9-4.2-4.2v-5.9c0-0.4,0.3-0.7,0.7-0.7
		h7.1c0.4,0,0.7,0.3,0.7,0.7V67.5L356.7,67.5z M362.6,65.9h-1.4c-0.2-0.2-0.4-0.3-0.4-0.3c-0.3-0.2,0.1-0.9,0.5-0.6
		C361.2,65,361.8,65.3,362.6,65.9L362.6,65.9z M361.9,77.3L361.9,77.3C361.9,77.3,361.9,77.3,361.9,77.3l1.1,0c0,0,0,0,0,0h0v0.2
		c0,0,0,0,0,0c0,0.3-0.2,0.6-0.6,0.6c-0.3,0-0.6-0.3-0.6-0.6c0,0,0,0,0,0V77.3L361.9,77.3z M360.5,74.9h0.4c0.1,0,0.2-0.1,0.2-0.2
		c0.1-0.2,0.3-0.4,0.6-0.4c1.5,0,0,0,1.6,0c0.4,0,0.6,0.3,0.6,0.7v1.2c0,0.4-0.3,0.7-0.7,0.7h-1.5c-0.3,0-0.5-0.2-0.6-0.4
		c0-0.1-0.1-0.2-0.2-0.2h-0.4V74.9L360.5,74.9z M360.5,69.5h1v1C361.1,70.2,360.8,69.8,360.5,69.5L360.5,69.5z M359.7,81.1
		c0-0.2,0.2-0.4,0.4-0.4c0.2,0,0.4,0.2,0.4,0.4v0.5c0,0.2-0.2,0.4-0.4,0.4c-0.2,0-0.4-0.2-0.4-0.4V81.1L359.7,81.1z M359.7,78.1
		c0-0.2,0.2-0.4,0.4-0.4c0.2,0,0.4,0.2,0.4,0.4v0.5c0,0.2-0.2,0.4-0.4,0.4c-0.2,0-0.4-0.2-0.4-0.4V78.1L359.7,78.1z M358.3,75.6
		c0-0.4,0.3-0.7,0.7-0.7h0.8v1.3h-0.8C358.6,76.2,358.3,75.9,358.3,75.6L358.3,75.6z M359.2,68.1c-0.5-0.6-0.9-1-1-1
		c-0.3-0.4,0.3-0.8,0.6-0.4c0,0,0.2,0.2,0.4,0.4V68.1L359.2,68.1z M360.9,74.2c-0.1,0.1-0.1,0.2-0.2,0.3h-0.2v-0.3h-0.8v0.3h-0.2
		c-1.1-1.9-2.2-3.9-2.4-4.3c-0.1-0.2-0.2-0.3-0.1-0.5c0-0.1,0.1-0.2,0.2-0.2c0.1,0,0.2,0,0.3,0.1C357.6,69.6,359.3,72,360.9,74.2
		L360.9,74.2z M360.3,66.4h4.3c0.4,0,0.7,0.3,0.7,0.7v1.4c0,0.4-0.3,0.7-0.7,0.7h-1.2c-0.2,0-0.4,0.2-0.4,0.4v4.4h-1.1v-4.4
		c0-0.2-0.2-0.4-0.4-0.4h-1.2c-0.4,0-0.7-0.3-0.7-0.7V67C359.6,66.7,359.9,66.4,360.3,66.4L360.3,66.4z M355.9,67.9
		c0-0.1,0-0.2-0.1-0.3c-0.1-0.1-0.2-0.1-0.3-0.1h-6.1c-0.1,0-0.2,0-0.3,0.1c-0.1,0.1-0.1,0.2-0.1,0.3c0.3,1.7,1.7,3,3.4,3
		S355.7,69.6,355.9,67.9L355.9,67.9z M355.9,64.3v-2.2c0-0.2-0.2-0.4-0.4-0.4h-6c-0.2,0-0.4,0.2-0.4,0.4v2.2c0,0.2,0.2,0.4,0.4,0.4
		h6C355.7,64.7,355.9,64.5,355.9,64.3L355.9,64.3z M357,48.7c0.1-0.3-0.1-0.4-0.4-0.4l-1,0.1c-0.3,0-0.5,0.2-0.5,0.5v0.2
		c0,0.3,0.2,0.5,0.5,0.5h0.8c0.3,0,0.6-0.4,0.6-0.7L357,48.7L357,48.7z M354.4,49c0.1-0.3-0.1-0.5-0.4-0.5h-1.3
		c-0.3,0-0.5,0.2-0.4,0.5l0,0.1c0.1,0.3,0.3,0.5,0.6,0.5h0.8c0.3,0,0.6-0.2,0.6-0.5L354.4,49L354.4,49z M350.6,50
		c-0.2,0-0.3,0.1-0.3,0.3l0,0.1c0,0.2,0.2,0.3,0.4,0.3h5.4c0.2,0,0.4-0.1,0.4-0.3l0-0.1c0-0.2-0.1-0.3-0.3-0.3H350.6L350.6,50z
		 M351.8,49.2V49c0-0.3-0.2-0.5-0.5-0.5l-1-0.1c-0.3,0-0.5,0.2-0.4,0.5l0,0.3c0.1,0.3,0.3,0.5,0.6,0.5h0.8
		C351.5,49.7,351.8,49.4,351.8,49.2L351.8,49.2z M347.4,55.5c-0.3,0.2-0.4,0.3-1,0.3c-0.2,0-0.3-0.1-0.3,0c-0.1,0.1,0.2,0.6,0.7,0.6
		c1.3,0,1.8-1.5,2.1-1.7c0.2-0.1,0.3,0,0.3-0.1c0-0.1-0.1-0.2-0.3-0.2C348,54.5,347.7,55.2,347.4,55.5L347.4,55.5z"/>
</g>
</svg>
